
<svg xmlns="http://www.w3.org/2000/svg" width="31.504" height="30.705" viewBox="1258.75 438.647 31.504 30.705">
<path d="m1272.145 440.704 1.56-1.561a1.68 1.68 0 0 1 2.384 0l13.67 13.662c.66.66.66 1.73 0 2.383l-13.67 13.669c-.66.661-1.73.661-2.383 0l-1.561-1.56a1.69 1.69 0 0 1 .028-2.413l8.473-8.072h-20.208a1.683 1.683 0 0 1-1.688-1.687v-2.25c0-.935.753-1.688 1.688-1.688h20.208l-8.473-8.071a1.677 1.677 0 0 1-.028-2.412Z" fill="red" fill-rule="evenodd" data-name="Icon awesome-arrow-right"/></svg>