
<svg xmlns="http://www.w3.org/2000/svg" width="32.822" height="32.059" viewBox="1258.091 437.97 32.822 32.059"><path d="m1277.44 467.18-1.49 1.628a1.68 1.68 0 0 1-2.381.104l-14.256-13.048a1.68 1.68 0 0 1-.104-2.381l13.055-14.256a1.68 1.68 0 0 1 2.381-.105l1.628 1.491a1.69 1.69 0 0 1 .078 2.41l-8.11 8.437 20.188-.887a1.683 1.683 0 0 1 1.76 1.611l.1 2.248a1.683 1.683 0 0 1-1.613 1.76l-20.188.888 8.819 7.692c.717.623.779 1.71.134 2.408Z" fill="red" fill-rule="evenodd" data-name="Icon awesome-arrow-right"/></svg>