
<svg xmlns="http://www.w3.org/2000/svg" width="29.25" height="29.25" viewBox="745 630.375 29.25 29.25"><g data-name="Icon ionic-ios-close-circle-outline"><path d="M764.92 648.705 761.214 645l3.706-3.705a1.129 1.129 0 0 0 0-1.59 1.129 1.129 0 0 0-1.59 0l-3.705 3.706-3.705-3.706c-.436-.435-1.097-.499-1.59 0-.499.5-.421 1.168 0 1.59l3.706 3.705-3.706 3.705c-.47.472-.45 1.147 0 1.59.45.45 1.154.435 1.59 0l3.705-3.706 3.705 3.706a1.129 1.129 0 0 0 1.59 0 1.116 1.116 0 0 0 0-1.59Z" fill="#fff" fill-rule="evenodd" data-name="Caminho 832"/><path d="M759.625 632.344c3.382 0 6.56 1.315 8.95 3.705a12.573 12.573 0 0 1 3.706 8.951c0 3.382-1.315 6.56-3.705 8.95a12.573 12.573 0 0 1-8.951 3.706c-3.382 0-6.56-1.315-8.95-3.705a12.573 12.573 0 0 1-3.706-8.951c0-3.382 1.315-6.56 3.705-8.95a12.573 12.573 0 0 1 8.951-3.706m0-1.969c-8.079 0-14.625 6.546-14.625 14.625s6.546 14.625 14.625 14.625S774.25 653.079 774.25 645s-6.546-14.625-14.625-14.625Z" fill="#fff" fill-rule="evenodd" data-name="Caminho 833"/></g></svg>